<?xml version="1.0" encoding="utf-8"?>
<!-- Generator: Adobe Illustrator 22.1.0, SVG Export Plug-In . SVG Version: 6.00 Build 0)  -->
<svg version="1.1" id="Layer_1" xmlns="http://www.w3.org/2000/svg" xmlns:xlink="http://www.w3.org/1999/xlink" x="0px" y="0px"
	 viewBox="0 0 500 500" style="enable-background:new 0 0 500 500;" xml:space="preserve">
<style type="text/css">
	.st0{fill:#17202D;}
</style>
<g>
	<g>
		<g>
			<path class="st0" d="M428.5,212C428.5,212,428.5,212,428.5,212c-0.1-0.3-0.3-0.4-0.5-0.4c-0.2,0-0.4,0.3-0.4,0.5
				c0.8,6.5,1.1,13,1.1,19.1c0,90.8-73.8,164.6-164.6,164.6c-40.8,0-78.2-15-107-39.7c-0.1,0.1-0.3,0.2-0.4,0.4
				c-0.1,0.1-0.2,0.2-0.3,0.3c-13,12.1-30.5,20.5-48.9,26.3c-0.2,0.1-0.4,0.1-0.6,0.2c-0.1,0-0.3,0.1-0.4,0.1
				c34.5,35.5,82.7,57.6,136,57.6c104.7,0,189.9-85.2,189.9-189.9C432.6,237.9,431.2,224.8,428.5,212z M112.5,296.5
				c0.1-0.1,0.3-0.2,0.4-0.2c-8.6-20-13.4-42-13.4-65.1c0-90.8,73.8-164.6,164.6-164.6c10.5,0,21.1,1,31.5,3.1
				c0.2,0,0.5-0.1,0.5-0.3c0.1-0.2-0.1-0.5-0.3-0.5c-17.3-5.1-35.3-7.6-53.2-7.6C138,61.1,52.8,146.3,52.8,251
				c0,27.1,5.7,52.9,16,76.2c0.1-0.1,0.2-0.2,0.3-0.3c0.1-0.1,0.3-0.2,0.4-0.4c16.5-14.8,30.7-24.1,42.6-29.9
				C112.3,296.6,112.4,296.5,112.5,296.5z"/>
		</g>
	</g>
	<path class="st0" d="M180.9,248.8c9.7-13.9,21.7-29.6,35.4-45.8c-35.6-15.1-71.1-5.2-87.1,0.9C156.9,217.8,172.3,235,180.9,248.8z
		 M449,87.6c-6.2,22-19.6,41.9-40.5,59.1l-1.3,1.1c-4.5,3.9-11.7,3-18.4-2.1c-4.4-3.4-8-8.5-8-13.6c0-1.5,0.3-3,1-4.4
		c0.3-0.5,0.6-1,1-1.4c17.5-15.7,27.3-28.8,32.8-38.4c-26.9,2.3-53.4,9.9-78.8,23c-38.2,19.8-75.6,54.5-105.9,88.9
		c-1,1.2-2.1,2.3-3.1,3.5c-1.1,1.2-2.1,2.4-3.1,3.6c-15.4,18.1-28.7,35.7-38.9,50.7c-1,1.5-2,3-3,4.5c-1.1,1.6-2.1,3.2-3.1,4.7
		c-4.1,6.3-7.5,12-10.1,16.8c0.7,0.4,1.5,0.9,2.2,1.5c1.3,0.9,2.7,2,4.1,3.3c1.3,1.2,2.5,2.5,3.8,4c2.7,3.2,5.3,7.2,7.3,12.1
		c0.6,1.5,1.2,3.1,1.7,4.8c0.5,1.6,0.8,3.4,1.2,5.2c0.1,0.3,0.2,0.6,0.2,1c2.7-0.4,7-1.2,12.7-2.5c1.5-0.3,3.1-0.7,4.8-1.1
		c1.5-0.4,3.1-0.8,4.8-1.2c1.3-0.3,2.7-0.7,4.1-1.1c-0.8-1.9-1.5-3.4-2-4.6c-0.7-1.7-1.2-2.6-1.3-2.7c-0.3-0.5-0.4-1.1-0.4-1.6
		c-0.1-0.7,0-1.4,0.3-2.1c0.5-1.2,1.4-2.2,2.6-2.6c2.7-1,5.3-2.1,8-3.2c31.1-13.2,54.6-30.7,54.9-30.9c1.2-0.9,2.9-1.2,4.3-0.6
		c1.5,0.5,2.5,1.8,2.9,3.3c1.4,6.1,2.2,11.9,2.8,17.5c6.5-3.2,13.1-6.6,19.9-10.3c54.5-30,126.8-85.5,164.5-180
		C468.2,90.4,459.9,88.6,449,87.6z M289.1,242.7c-9.3,0-16.7-7.5-16.7-16.7c0-9.3,7.5-16.8,16.7-16.8c9.3,0,16.8,7.5,16.8,16.8
		C305.9,235.2,298.4,242.7,289.1,242.7z M326.6,214.4c-9.3,0-16.7-7.5-16.7-16.7c0-9.3,7.5-16.8,16.7-16.8c9.3,0,16.8,7.5,16.8,16.8
		C343.4,206.9,335.9,214.4,326.6,214.4z M362.6,186.4c-9.3,0-16.7-7.5-16.7-16.7c0-9.3,7.5-16.7,16.7-16.7c9.3,0,16.8,7.5,16.8,16.7
		C379.3,178.9,371.8,186.4,362.6,186.4z M159.3,303.4c-1.1-1.3-2.1-2.4-3.2-3.3c-1.5-1.3-3-2.2-4.3-2.6c-1.5,1.1-2.8,2.1-3.9,3
		c1.1-0.9,2.4-1.9,3.9-3c-0.1,0-0.2-0.1-0.2-0.1c-3.8-0.9-15.4-2.1-34.8,7.1c-0.2,0.1-0.3,0.1-0.5,0.2c-0.1,0.1-0.2,0.1-0.4,0.2
		c-11.5,5.6-25.7,15-42.4,30.3c-0.1,0.1-0.3,0.2-0.4,0.4c-0.1,0.1-0.2,0.2-0.3,0.3C59.3,348.5,44,364.8,27,386.3
		c14.7-0.5,44.3-2.6,72.6-10.7c0.1,0,0.3-0.1,0.4-0.1c0.2-0.1,0.4-0.1,0.6-0.2c18.4-5.3,36.2-13.3,49-24.9c0.1-0.1,0.2-0.2,0.3-0.3
		c0.1-0.1,0.3-0.2,0.4-0.4c7.1-6.6,12.5-14.5,15.5-23.8c0.5-1.6,1-3.2,1.3-4.9c0.3-1.2,0.5-2.4,0.7-3.6c-0.1-0.3-0.3-0.7-0.5-1
		C165.2,311.5,162.3,306.9,159.3,303.4z M145.5,302.5C145.5,302.5,145.5,302.5,145.5,302.5C145.5,302.5,145.5,302.6,145.5,302.5
		C145.5,302.6,145.5,302.5,145.5,302.5z M145.5,302.5C145.5,302.5,145.5,302.5,145.5,302.5L145.5,302.5
		C145.5,302.5,145.5,302.5,145.5,302.5z M150.2,315.9c-1.2,1-2.5,2.1-4,3.3c-1.2,0.9-2.5,1.9-3.8,2.9c-3.2,2.4-6.7,5-10.1,7.5
		c-0.1,0.1-0.3,0.2-0.4,0.3c-0.1,0.1-0.2,0.1-0.3,0.2c-10.5,7.6-20.6,14.6-20.6,14.6s10.1-24.4,8.5-24.1
		c-13.9,3.9-32.7,19.9-39.6,26.1c-0.1,0.1-0.3,0.2-0.4,0.4c-0.1,0.1-0.2,0.2-0.3,0.3c-1.3,1.2-2,1.9-2,1.9s0.6-0.9,1.7-2.4
		c0.1-0.1,0.2-0.2,0.3-0.3c0.1-0.1,0.2-0.3,0.3-0.5c5.4-7.1,19.4-24.7,35.1-35.5c1.1-0.8,2.2-1.4,3.3-2c0.1-0.1,0.2-0.1,0.3-0.2
		c0.2-0.1,0.3-0.1,0.5-0.2c9-4.7,17.7-4.9,24.4-3.4c1.9,0.4,3.6,0.9,5.1,1.5c1.8,0.7,3.3,1.5,4.3,2.4c1.4,1.1,2.2,2.2,2,2.9
		C154.3,312.2,152.7,313.8,150.2,315.9z M190.9,319.9c-0.1-0.9-0.1-1.5-0.3-2C190.6,318.7,190.8,319.2,190.9,319.9z M211,320.4
		c-1.2,7.5-2.8,16.3-4.8,23.9c5-2.6,11.6-6.8,18-12.6c-1.4-5-2.9-9.7-4.3-13.7C216.6,319,213.6,319.8,211,320.4z M166.9,298.2
		c3.9,4.7,7,10.4,9,15.1c1.4-0.8,2.8-1.6,4-2.4c-2.2-6.8-5.8-11.6-9.2-15C169.5,296.6,168.2,297.4,166.9,298.2z M279.7,286.1
		c-0.3-4.1-0.9-8.4-1.6-12.7c-7,4.8-19.7,12.8-35.7,20.7c-2,1-4,2-6.1,2.9c-3.4,1.6-6.9,3.1-10.6,4.6c-0.7,0.3-1.4,0.6-2.1,0.9
		c0.5,1.2,1.2,2.7,1.9,4.4c0.5,1.3,1.1,2.7,1.7,4.3c0.5,1.3,1,2.7,1.6,4.2c0.9,2.6,1.9,5.5,2.9,8.6c0.5,1.7,1,3.5,1.5,5.3
		c0.5,1.7,0.9,3.5,1.3,5.3c2.3,9.7,4,20.5,4,31.6c0,2.5-0.4,4.9-0.6,7.4c13.6-9.1,41.4-33.1,42.3-77.5c0-0.7,0.1-1.3,0.1-2
		c0-1-0.1-2-0.1-2.9C279.9,289.4,279.8,287.7,279.7,286.1z"/>
</g>
</svg>
